<svg xmlns="http://www.w3.org/2000/svg" width="124" height="124" viewBox="0 0 124 124">
  <defs>
    <style>
      .cls-1, .cls-2 {
        fill-rule: evenodd;
      }

      .cls-2 {
        fill: #fff;
      }
    </style>
  </defs>
  <path id="vector" class="cls-1" d="M62,0c33.25,0,62,28,62,62s-29.75,62.25-62,62S-0.25,95.25,0,62,28.75,0,62,0Z"/>
  <path id="Color_Fill_1" data-name="Color Fill 1" class="cls-2" d="M46,63c0,14.188,1.375,28.813,17,29,15.658-.041,17.965-11.386,18-19,3.263-.06,6.144.042,9,0,0.063,8.875-6.5,24-27,24-18.812-.062-30-9.312-30-35C32.875,37.813,47.014,28.035,63.264,27.973S91.256,37.831,91,63C91,63,52.186,62.864,46,63Zm0-5c10,0,21.5.125,32,0,0.043-19.962-4.739-25.121-15-25C51.813,33,46.126,38.24,46,58Z"/>
</svg>
