<svg xmlns="http://www.w3.org/2000/svg" version="1.0" width="512.000000pt" height="512.000000pt" viewBox="0 0 512.000000 512.000000" preserveAspectRatio="xMidYMid meet">
<metadata fill="#131315">
Created by potrace 1.16, written by Peter Selinger 2001-2019
</metadata>
<g transform="translate(0.000000,512.000000) scale(0.064000,-0.064000)" fill="#131315" stroke="none">
<path d="M2228 4720 c-2 -2416 -6 -3283 -14 -3288 -6 -4 -15 -22 -19 -41 -7 -31 -50 -119 -64 -131 -3 -3 -14 -21 -25 -42 -20 -40 -259 -288 -277 -288 -7 0 -9 -3 -6 -6 4 -4 -17 -29 -46 -55 -28 -27 -55 -52 -59 -56 -88 -94 -260 -263 -268 -263 -5 0 -10 -5 -10 -10 0 -6 -21 -31 -47 -55 -27 -25 -52 -49 -57 -54 -133 -140 -260 -261 -274 -261 -9 0 -30 7 -47 16 -18 9 -31 11 -33 5 -2 -6 -19 -13 -38 -17 -27 -5 -34 -11 -34 -30 0 -19 5 -24 25 -24 14 0 25 -4 25 -10 0 -5 12 -10 28 -10 23 -1 24 -2 9 -11 -9 -5 -17 -18 -17 -27 0 -15 13 -17 110 -17 67 0 114 -4 118 -11 4 -5 33 -16 65 -24 46 -11 63 -11 78 -2 10 7 26 12 34 12 9 0 18 7 21 15 5 13 305 15 2611 15 2476 0 2604 -1 2599 -17 -4 -13 0 -18 17 -19 12 -1 46 -5 75 -9 52 -8 95 4 114 30 4 6 63 11 135 12 87 1 129 5 131 13 2 6 -12 26 -32 43 -39 35 -44 47 -21 47 8 0 15 5 15 10 0 6 9 10 20 10 32 0 25 36 -10 52 -16 7 -30 16 -30 20 0 5 -11 8 -25 8 -14 0 -25 -4 -25 -10 0 -5 -7 -10 -15 -10 -8 0 -15 -5 -15 -11 0 -10 -913 900 -953 950 -33 41 -87 130 -87 143 0 7 -7 22 -15 32 -8 11 -15 28 -15 37 0 10 -6 19 -12 21 -10 4 -14 675 -16 3301 l-2 3297 -1810 0 -1810 0 -2 -3280z" fill="#131315"/>
</g>
</svg>