<svg width="100%" height="100%" viewBox="0 0 249 249" version="1.1" xmlns="http://www.w3.org/2000/svg" xmlns:xlink="http://www.w3.org/1999/xlink" xml:space="preserve" xmlns:serif="http://www.serif.com/" style="fill-rule:evenodd;clip-rule:evenodd;stroke-linejoin:round;stroke-miterlimit:1.41421;"><path d="M113.224,225.966l-6.5,0l-3.124,-25.876l7.763,20.871c0.863,-41.071 -4.517,-63.289 -13.08,-79.105c-2.399,-4.4 -5.044,-8.305 -7.869,-11.986l0.001,0l0.115,0.092c-0.675,-0.886 -1.361,-1.758 -2.056,-2.621c11.129,7.588 19.407,20.004 25.297,33.947c0.001,-1.669 0,-3.369 -0.004,-5.097l0,-0.055l-0.001,-0.421c-0.111,-44.942 -1.877,-108.088 -3.542,-133.618l0.043,0.413c-0.014,-0.226 -0.029,-0.449 -0.043,-0.669l0,0l0,-0.001c10.999,44.446 18.603,109.403 22.244,151.107c5.812,-7.115 14.851,-11.403 28.757,-9.419c-26.126,1.125 -28.125,36.938 -22.563,59c0.406,1.82 -11.836,3.175 -14.415,3.073l-0.007,0l-0.005,0c-0.022,-0.001 -0.044,-0.002 -0.065,-0.003l-0.003,0l-0.004,0l-0.011,-0.001l-0.008,-0.001l-0.011,0l-0.01,-0.001l0,0l-0.001,0c-0.184,-0.012 -0.301,-0.034 -0.338,-0.067l0.001,0c-0.066,-0.059 -0.304,-1.31 -0.553,-3.421l-1.939,-0.084l-0.006,0.193l-9.613,-0.417l1.55,4.167Zm5.521,-39.719c2.096,0 3.797,1.701 3.797,3.797c0,2.096 -1.701,3.797 -3.797,3.797c-2.096,0 -3.797,-1.701 -3.797,-3.797c0,-2.096 1.701,-3.797 3.797,-3.797Zm9.531,0c2.096,0 3.797,1.701 3.797,3.797c0,2.096 -1.701,3.797 -3.797,3.797c-2.096,0 -3.797,-1.701 -3.797,-3.797c0,-2.096 1.701,-3.797 3.797,-3.797Z"/><path d="M144.35,224.34l4.25,0l3.124,-20l-7.374,20Z"/><path d="M91.724,212.716l5.375,9.25l3,0l-8.375,-9.25Z"/><path d="M155.224,219.09l3.625,0l1.75,-7.374l-5.375,7.374Z"/></svg>
